<svg xmlns="http://www.w3.org/2000/svg" viewBox="0 0 24 24" role="img" aria-label="Logo Qonto">
  <path fill="#1D1D1B" d="M11.6829 0C5.05953 0 0 5 0 11.8182C0 18.3636 5.05953 23.5455 11.6829 23.5455C18.4903 23.5455 23.5498 18.3636 23.5498 11.9091C23.5498 5 18.4903 0 11.6829 0ZM11.6829 20C7.08334 20 3.67965 16.5455 3.67965 11.8182C3.67965 6.90909 7.08334 3.27273 11.6829 3.27273C16.3745 3.27273 19.7781 6.90909 19.7781 11.7273C19.7781 16.5455 16.3745 20 11.6829 20Z"/>
  <path fill="#1D1D1B" d="M22.9978 24C16.3744 23.2727 12.1428 20 10.027 13.8182L13.3387 12.7273C14.9945 17.6364 18.1222 20.0909 23.3657 20.6364L22.9978 24Z"/>
</svg>
